<?xml version="1.0" ?><svg xmlns="http://www.w3.org/2000/svg" xmlns:xlink="http://www.w3.org/1999/xlink" version="1.1" id="Layer_1" viewBox="0 0 24 24" enable-background="new 0 0 24 24" xml:space="preserve"><g><linearGradient id="SVGID_1_" gradientUnits="userSpaceOnUse" x1="9.2682" y1="-0.25" x2="9.2682" y2="23.8631"><stop offset="0" style="stop-color:#FDF542"/><stop offset="0.4218" style="stop-color:#FF9005"/><stop offset="1" style="stop-color:#F9530B"/></linearGradient><path fill="url(#SVGID_1_)" d="M10.31,4.45C9.98,4.27,9.63,4.17,9.27,4.17c-0.36,0-0.71,0.1-1.04,0.28   C7.92,4.63,7.64,4.89,7.4,5.21C6.91,5.87,6.65,6.74,6.65,7.66c0,0.39,0.05,0.77,0.14,1.14c0.09,0.36,0.23,0.69,0.4,0.99   c0.17,0.3,0.38,0.56,0.61,0.77c0.21,0.18,0.43,0.33,0.66,0.43l-0.51,7.4c-0.04,0.39,0.1,0.78,0.38,1.05   c0.25,0.25,0.58,0.39,0.94,0.39c0.37,0,0.73-0.16,0.98-0.43c0.25-0.27,0.37-0.64,0.34-1.01l-0.57-6.96   c-0.01-0.09-0.09-0.16-0.18-0.16c-0.09,0.01-0.16,0.09-0.16,0.18l0.57,6.96c0,0,0,0,0,0c0.03,0.27-0.07,0.55-0.25,0.75   c-0.19,0.2-0.45,0.32-0.72,0.32c-0.26,0-0.51-0.1-0.69-0.29c-0.21-0.21-0.31-0.49-0.28-0.78c0,0,0,0,0,0l0.52-7.53   c0.01-0.08-0.04-0.15-0.11-0.17c-1.01-0.36-1.71-1.61-1.71-3.05c0-0.85,0.24-1.65,0.68-2.24c0.43-0.58,1-0.9,1.59-0.9   c0.6,0,1.17,0.32,1.59,0.9c0.44,0.6,0.68,1.39,0.68,2.24c0,1.42-0.69,2.66-1.68,3.04l-0.55-0.01c-0.09,0-0.17,0.07-0.17,0.17   c0,0.09,0.07,0.17,0.17,0.17l0.58,0.01c0.02,0,0.04,0,0.06-0.01c0.28-0.1,0.54-0.26,0.78-0.48c0.23-0.21,0.44-0.47,0.61-0.77   c0.17-0.3,0.31-0.63,0.4-0.99c0.09-0.37,0.14-0.75,0.14-1.14c0-0.92-0.27-1.79-0.75-2.45C10.9,4.89,10.62,4.63,10.31,4.45z"/><linearGradient id="SVGID_00000000934726473234998040000012187254495597209012_" gradientUnits="userSpaceOnUse" x1="10.7386" y1="-0.25" x2="10.7386" y2="23.8631"><stop offset="0" style="stop-color:#FDF542"/><stop offset="0.4218" style="stop-color:#FF9005"/><stop offset="1" style="stop-color:#F9530B"/></linearGradient><path fill="url(#SVGID_00000000934726473234998040000012187254495597209012_)" d="M10.32,9.72c0.03,0.02,0.07,0.04,0.11,0.04   c0.05,0,0.1-0.02,0.13-0.07c0.56-0.71,0.79-1.66,0.61-2.55c-0.02-0.09-0.11-0.15-0.2-0.13c-0.09,0.02-0.15,0.11-0.13,0.2   c0.16,0.79-0.05,1.64-0.55,2.27C10.23,9.55,10.24,9.66,10.32,9.72z"/><linearGradient id="SVGID_00000011009700859699927950000009782546134684213658_" gradientUnits="userSpaceOnUse" x1="10.7045" y1="-0.25" x2="10.7045" y2="23.8631"><stop offset="0" style="stop-color:#FDF542"/><stop offset="0.4218" style="stop-color:#FF9005"/><stop offset="1" style="stop-color:#F9530B"/></linearGradient><path fill="url(#SVGID_00000011009700859699927950000009782546134684213658_)" d="M10.84,6.8c0.02,0,0.03,0,0.05-0.01   c0.09-0.03,0.14-0.12,0.12-0.21c-0.07-0.23-0.16-0.46-0.29-0.67c-0.05-0.08-0.15-0.11-0.23-0.06c-0.08,0.05-0.11,0.15-0.06,0.23   c0.11,0.19,0.19,0.38,0.25,0.59C10.7,6.76,10.76,6.8,10.84,6.8z"/><linearGradient id="SVGID_00000066492845639255726060000011343053173360109696_" gradientUnits="userSpaceOnUse" x1="15.0847" y1="-0.25" x2="15.0847" y2="23.8631"><stop offset="0" style="stop-color:#FDF542"/><stop offset="0.4218" style="stop-color:#FF9005"/><stop offset="1" style="stop-color:#F9530B"/></linearGradient><path fill="url(#SVGID_00000066492845639255726060000011343053173360109696_)" d="M16.87,4.26h-0.24c-0.27,0-0.49,0.22-0.49,0.49   v2.89c0,0.08-0.06,0.14-0.14,0.14h-0.06c-0.08,0-0.14-0.06-0.14-0.14l-0.07-2.9c0-0.13-0.05-0.25-0.15-0.34   c-0.09-0.09-0.21-0.14-0.34-0.14h-0.34c-0.27,0-0.49,0.22-0.49,0.49v2.89c0,0.08-0.06,0.14-0.14,0.14s-0.14-0.06-0.14-0.14V4.75   c0-0.27-0.22-0.49-0.49-0.49H13.3c-0.27,0-0.49,0.22-0.49,0.49v3.53c0,0.33,0.06,0.65,0.18,0.96c0.12,0.31,0.3,0.58,0.53,0.82   l0.69,0.73l-0.42,7.69c-0.01,0.18,0.02,0.35,0.08,0.52c0.06,0.16,0.15,0.3,0.27,0.43c0.12,0.12,0.26,0.22,0.41,0.29   c0.16,0.07,0.33,0.11,0.51,0.11c0.18,0,0.35-0.04,0.51-0.11c0.16-0.07,0.29-0.17,0.41-0.29c0.12-0.12,0.21-0.27,0.27-0.43   c0.06-0.17,0.09-0.34,0.08-0.52l-0.4-7.3c-0.01-0.09-0.09-0.17-0.18-0.16c-0.09,0.01-0.17,0.09-0.16,0.18l0.4,7.3   c0.01,0.26-0.08,0.5-0.25,0.69c-0.18,0.19-0.42,0.29-0.68,0.29c-0.26,0-0.5-0.1-0.68-0.29c-0.18-0.19-0.27-0.43-0.25-0.69   l0.42-7.77c0-0.05-0.01-0.09-0.05-0.13l-0.74-0.78c-0.4-0.42-0.62-0.97-0.62-1.55V4.75c0-0.08,0.06-0.14,0.14-0.14h0.32   c0.08,0,0.14,0.06,0.14,0.14v2.89c0,0.27,0.22,0.49,0.49,0.49s0.49-0.22,0.49-0.49V4.75c0-0.08,0.06-0.14,0.14-0.14h0.34   c0.08,0,0.14,0.06,0.14,0.14l0.07,2.9c0,0.13,0.05,0.25,0.15,0.34c0.09,0.09,0.21,0.14,0.34,0.14h0.06c0.27,0,0.49-0.22,0.49-0.49   V4.75c0-0.08,0.06-0.14,0.14-0.14h0.24c0.08,0,0.14,0.06,0.14,0.14v3.57c0,0.56-0.2,1.09-0.57,1.5l-0.55,0.62   c-0.07,0.07-0.16,0.12-0.26,0.12h-0.4c-0.09,0-0.17,0.08-0.17,0.17c0,0.09,0.08,0.17,0.17,0.17h0.4c0.2,0,0.39-0.08,0.52-0.23   l0.55-0.62c0.43-0.48,0.66-1.09,0.66-1.73V4.75C17.35,4.48,17.13,4.26,16.87,4.26z"/></g></svg>